<mxfile host="app.diagrams.net" agent="Mozilla/5.0 (Windows NT 10.0; Win64; x64) AppleWebKit/537.36 (KHTML, like Gecko) Chrome/140.0.0.0 Safari/537.36" version="28.2.5">
  <diagram name="Page-1" id="-S3erI8Kjh-zY9NtStZ_">
    <mxGraphModel dx="2066" dy="751" grid="1" gridSize="10" guides="1" tooltips="1" connect="1" arrows="1" fold="1" page="1" pageScale="1" pageWidth="850" pageHeight="1100" math="0" shadow="0">
      <root>
        <mxCell id="0" />
        <mxCell id="1" parent="0" />
        <mxCell id="YbLRJA4qpd1V6_4RfZgu-48" value="" style="edgeStyle=orthogonalEdgeStyle;rounded=0;orthogonalLoop=1;jettySize=auto;html=1;" edge="1" parent="1" source="YbLRJA4qpd1V6_4RfZgu-1" target="YbLRJA4qpd1V6_4RfZgu-4">
          <mxGeometry relative="1" as="geometry" />
        </mxCell>
        <mxCell id="YbLRJA4qpd1V6_4RfZgu-1" value="start" style="ellipse;whiteSpace=wrap;html=1;" vertex="1" parent="1">
          <mxGeometry x="60" y="40" width="120" height="80" as="geometry" />
        </mxCell>
        <mxCell id="YbLRJA4qpd1V6_4RfZgu-2" value="num3&lt;div&gt;&lt;br&gt;&lt;/div&gt;&lt;div&gt;int(input(num3))&lt;/div&gt;" style="shape=parallelogram;perimeter=parallelogramPerimeter;whiteSpace=wrap;html=1;fixedSize=1;" vertex="1" parent="1">
          <mxGeometry x="50" y="340" width="120" height="60" as="geometry" />
        </mxCell>
        <mxCell id="YbLRJA4qpd1V6_4RfZgu-39" value="" style="edgeStyle=orthogonalEdgeStyle;rounded=0;orthogonalLoop=1;jettySize=auto;html=1;" edge="1" parent="1" source="YbLRJA4qpd1V6_4RfZgu-3" target="YbLRJA4qpd1V6_4RfZgu-2">
          <mxGeometry relative="1" as="geometry" />
        </mxCell>
        <mxCell id="YbLRJA4qpd1V6_4RfZgu-3" value="num2&lt;div&gt;&lt;br&gt;&lt;/div&gt;&lt;div&gt;int(input(num2))&lt;/div&gt;" style="shape=parallelogram;perimeter=parallelogramPerimeter;whiteSpace=wrap;html=1;fixedSize=1;" vertex="1" parent="1">
          <mxGeometry x="50" y="250" width="120" height="60" as="geometry" />
        </mxCell>
        <mxCell id="YbLRJA4qpd1V6_4RfZgu-38" value="" style="edgeStyle=orthogonalEdgeStyle;rounded=0;orthogonalLoop=1;jettySize=auto;html=1;" edge="1" parent="1" source="YbLRJA4qpd1V6_4RfZgu-4" target="YbLRJA4qpd1V6_4RfZgu-3">
          <mxGeometry relative="1" as="geometry" />
        </mxCell>
        <mxCell id="YbLRJA4qpd1V6_4RfZgu-4" value="num1&lt;div&gt;int(input(num1))&lt;/div&gt;" style="shape=parallelogram;perimeter=parallelogramPerimeter;whiteSpace=wrap;html=1;fixedSize=1;" vertex="1" parent="1">
          <mxGeometry x="60" y="160" width="120" height="60" as="geometry" />
        </mxCell>
        <mxCell id="YbLRJA4qpd1V6_4RfZgu-5" value="var3 = num3&lt;div&gt;&lt;br&gt;&lt;/div&gt;" style="rounded=0;whiteSpace=wrap;html=1;" vertex="1" parent="1">
          <mxGeometry x="240" y="340" width="120" height="60" as="geometry" />
        </mxCell>
        <mxCell id="YbLRJA4qpd1V6_4RfZgu-6" value="var2 = num2" style="rounded=0;whiteSpace=wrap;html=1;" vertex="1" parent="1">
          <mxGeometry x="240" y="250" width="120" height="60" as="geometry" />
        </mxCell>
        <mxCell id="YbLRJA4qpd1V6_4RfZgu-7" value="VAR1 = num1" style="rounded=0;whiteSpace=wrap;html=1;" vertex="1" parent="1">
          <mxGeometry x="230" y="160" width="120" height="60" as="geometry" />
        </mxCell>
        <mxCell id="YbLRJA4qpd1V6_4RfZgu-8" value="END" style="ellipse;whiteSpace=wrap;html=1;" vertex="1" parent="1">
          <mxGeometry x="355" y="940" width="120" height="80" as="geometry" />
        </mxCell>
        <mxCell id="YbLRJA4qpd1V6_4RfZgu-47" value="" style="edgeStyle=orthogonalEdgeStyle;rounded=0;orthogonalLoop=1;jettySize=auto;html=1;" edge="1" parent="1" source="YbLRJA4qpd1V6_4RfZgu-10" target="YbLRJA4qpd1V6_4RfZgu-8">
          <mxGeometry relative="1" as="geometry" />
        </mxCell>
        <mxCell id="YbLRJA4qpd1V6_4RfZgu-10" value="print&lt;div&gt;minval, median, maxval&lt;/div&gt;" style="shape=parallelogram;perimeter=parallelogramPerimeter;whiteSpace=wrap;html=1;fixedSize=1;" vertex="1" parent="1">
          <mxGeometry x="150" y="820" width="530" height="60" as="geometry" />
        </mxCell>
        <mxCell id="YbLRJA4qpd1V6_4RfZgu-12" value="is num1 &amp;gt; num 2" style="rhombus;whiteSpace=wrap;html=1;" vertex="1" parent="1">
          <mxGeometry x="355" y="420" width="110" height="110" as="geometry" />
        </mxCell>
        <mxCell id="YbLRJA4qpd1V6_4RfZgu-13" value="is num2 &amp;gt; num3" style="rhombus;whiteSpace=wrap;html=1;" vertex="1" parent="1">
          <mxGeometry x="130" y="540" width="140" height="120" as="geometry" />
        </mxCell>
        <mxCell id="YbLRJA4qpd1V6_4RfZgu-14" value="is num1 &amp;gt; num3" style="rhombus;whiteSpace=wrap;html=1;" vertex="1" parent="1">
          <mxGeometry x="570" y="530" width="150" height="120" as="geometry" />
        </mxCell>
        <mxCell id="YbLRJA4qpd1V6_4RfZgu-15" value="maxval = num2&lt;div&gt;median = num1&lt;/div&gt;&lt;div&gt;minval = num3&lt;/div&gt;" style="rounded=0;whiteSpace=wrap;html=1;" vertex="1" parent="1">
          <mxGeometry x="470" y="650" width="120" height="60" as="geometry" />
        </mxCell>
        <mxCell id="YbLRJA4qpd1V6_4RfZgu-16" value="maxval = num2&lt;div&gt;median = num3&lt;/div&gt;&lt;div&gt;minval = num1&lt;/div&gt;" style="rounded=0;whiteSpace=wrap;html=1;" vertex="1" parent="1">
          <mxGeometry x="710" y="650" width="120" height="60" as="geometry" />
        </mxCell>
        <mxCell id="YbLRJA4qpd1V6_4RfZgu-17" value="maxval = num1&lt;div&gt;median = num3&lt;/div&gt;&lt;div&gt;minval = num2&lt;/div&gt;" style="rounded=0;whiteSpace=wrap;html=1;" vertex="1" parent="1">
          <mxGeometry x="250" y="660" width="120" height="60" as="geometry" />
        </mxCell>
        <mxCell id="YbLRJA4qpd1V6_4RfZgu-18" value="maxval = num1&lt;div&gt;median = num2&lt;/div&gt;&lt;div&gt;minval = num3&lt;/div&gt;" style="rounded=0;whiteSpace=wrap;html=1;" vertex="1" parent="1">
          <mxGeometry x="20" y="660" width="120" height="60" as="geometry" />
        </mxCell>
        <mxCell id="YbLRJA4qpd1V6_4RfZgu-19" value="NO" style="text;html=1;align=center;verticalAlign=middle;whiteSpace=wrap;rounded=0;" vertex="1" parent="1">
          <mxGeometry x="420" y="430" width="60" height="30" as="geometry" />
        </mxCell>
        <mxCell id="YbLRJA4qpd1V6_4RfZgu-21" style="edgeStyle=orthogonalEdgeStyle;rounded=0;orthogonalLoop=1;jettySize=auto;html=1;exitX=0;exitY=0.25;exitDx=0;exitDy=0;" edge="1" parent="1" source="YbLRJA4qpd1V6_4RfZgu-20">
          <mxGeometry relative="1" as="geometry">
            <mxPoint x="340" y="430" as="targetPoint" />
          </mxGeometry>
        </mxCell>
        <mxCell id="YbLRJA4qpd1V6_4RfZgu-20" value="YES&lt;div&gt;&lt;br&gt;&lt;/div&gt;" style="text;html=1;align=center;verticalAlign=middle;whiteSpace=wrap;rounded=0;" vertex="1" parent="1">
          <mxGeometry x="330" y="440" width="60" height="30" as="geometry" />
        </mxCell>
        <mxCell id="YbLRJA4qpd1V6_4RfZgu-22" value="NO" style="text;html=1;align=center;verticalAlign=middle;whiteSpace=wrap;rounded=0;" vertex="1" parent="1">
          <mxGeometry x="200" y="530" width="60" height="30" as="geometry" />
        </mxCell>
        <mxCell id="YbLRJA4qpd1V6_4RfZgu-23" value="YES&lt;div&gt;&lt;br&gt;&lt;/div&gt;" style="text;html=1;align=center;verticalAlign=middle;whiteSpace=wrap;rounded=0;" vertex="1" parent="1">
          <mxGeometry x="130" y="540" width="60" height="30" as="geometry" />
        </mxCell>
        <mxCell id="YbLRJA4qpd1V6_4RfZgu-24" value="NO" style="text;html=1;align=center;verticalAlign=middle;whiteSpace=wrap;rounded=0;" vertex="1" parent="1">
          <mxGeometry x="650" y="535" width="60" height="30" as="geometry" />
        </mxCell>
        <mxCell id="YbLRJA4qpd1V6_4RfZgu-25" value="YES&lt;div&gt;&lt;br&gt;&lt;/div&gt;" style="text;html=1;align=center;verticalAlign=middle;whiteSpace=wrap;rounded=0;" vertex="1" parent="1">
          <mxGeometry x="570" y="545" width="60" height="30" as="geometry" />
        </mxCell>
        <mxCell id="YbLRJA4qpd1V6_4RfZgu-26" value="" style="endArrow=none;html=1;rounded=0;entryX=0;entryY=0.5;entryDx=0;entryDy=0;exitX=0.5;exitY=0;exitDx=0;exitDy=0;" edge="1" parent="1" source="YbLRJA4qpd1V6_4RfZgu-18" target="YbLRJA4qpd1V6_4RfZgu-13">
          <mxGeometry width="50" height="50" relative="1" as="geometry">
            <mxPoint x="350" y="710" as="sourcePoint" />
            <mxPoint x="400" y="660" as="targetPoint" />
            <Array as="points">
              <mxPoint x="80" y="600" />
            </Array>
          </mxGeometry>
        </mxCell>
        <mxCell id="YbLRJA4qpd1V6_4RfZgu-27" value="" style="endArrow=none;html=1;rounded=0;entryX=0;entryY=0.5;entryDx=0;entryDy=0;exitX=0.5;exitY=0;exitDx=0;exitDy=0;" edge="1" parent="1">
          <mxGeometry width="50" height="50" relative="1" as="geometry">
            <mxPoint x="520" y="650" as="sourcePoint" />
            <mxPoint x="570" y="590" as="targetPoint" />
            <Array as="points">
              <mxPoint x="520" y="590" />
            </Array>
          </mxGeometry>
        </mxCell>
        <mxCell id="YbLRJA4qpd1V6_4RfZgu-28" value="" style="endArrow=none;html=1;rounded=0;entryX=0.914;entryY=0.425;entryDx=0;entryDy=0;exitX=0.5;exitY=0;exitDx=0;exitDy=0;entryPerimeter=0;" edge="1" parent="1" target="YbLRJA4qpd1V6_4RfZgu-13">
          <mxGeometry width="50" height="50" relative="1" as="geometry">
            <mxPoint x="320" y="650" as="sourcePoint" />
            <mxPoint x="370" y="590" as="targetPoint" />
            <Array as="points">
              <mxPoint x="320" y="590" />
            </Array>
          </mxGeometry>
        </mxCell>
        <mxCell id="YbLRJA4qpd1V6_4RfZgu-29" value="" style="endArrow=none;html=1;rounded=0;entryX=0.914;entryY=0.425;entryDx=0;entryDy=0;exitX=0.5;exitY=0;exitDx=0;exitDy=0;entryPerimeter=0;" edge="1" parent="1">
          <mxGeometry width="50" height="50" relative="1" as="geometry">
            <mxPoint x="782" y="650" as="sourcePoint" />
            <mxPoint x="720" y="591" as="targetPoint" />
            <Array as="points">
              <mxPoint x="782" y="590" />
            </Array>
          </mxGeometry>
        </mxCell>
        <mxCell id="YbLRJA4qpd1V6_4RfZgu-30" value="" style="endArrow=none;html=1;rounded=0;exitX=0.5;exitY=0;exitDx=0;exitDy=0;" edge="1" parent="1" target="YbLRJA4qpd1V6_4RfZgu-12">
          <mxGeometry width="50" height="50" relative="1" as="geometry">
            <mxPoint x="200" y="540" as="sourcePoint" />
            <mxPoint x="250" y="480" as="targetPoint" />
            <Array as="points">
              <mxPoint x="200" y="480" />
            </Array>
          </mxGeometry>
        </mxCell>
        <mxCell id="YbLRJA4qpd1V6_4RfZgu-31" value="" style="endArrow=none;html=1;rounded=0;entryX=1;entryY=0.5;entryDx=0;entryDy=0;exitX=0.5;exitY=0;exitDx=0;exitDy=0;" edge="1" parent="1" target="YbLRJA4qpd1V6_4RfZgu-12">
          <mxGeometry width="50" height="50" relative="1" as="geometry">
            <mxPoint x="642" y="530" as="sourcePoint" />
            <mxPoint x="580" y="471" as="targetPoint" />
            <Array as="points">
              <mxPoint x="642" y="470" />
            </Array>
          </mxGeometry>
        </mxCell>
        <mxCell id="YbLRJA4qpd1V6_4RfZgu-32" value="" style="endArrow=none;dashed=1;html=1;dashPattern=1 3;strokeWidth=2;rounded=0;exitX=0.5;exitY=1;exitDx=0;exitDy=0;" edge="1" parent="1" source="YbLRJA4qpd1V6_4RfZgu-17">
          <mxGeometry width="50" height="50" relative="1" as="geometry">
            <mxPoint x="350" y="710" as="sourcePoint" />
            <mxPoint x="310" y="810" as="targetPoint" />
          </mxGeometry>
        </mxCell>
        <mxCell id="YbLRJA4qpd1V6_4RfZgu-33" value="" style="endArrow=none;dashed=1;html=1;dashPattern=1 3;strokeWidth=2;rounded=0;exitX=0.5;exitY=1;exitDx=0;exitDy=0;entryX=0.185;entryY=0.017;entryDx=0;entryDy=0;entryPerimeter=0;" edge="1" parent="1">
          <mxGeometry width="50" height="50" relative="1" as="geometry">
            <mxPoint x="500" y="719" as="sourcePoint" />
            <mxPoint x="500" y="820" as="targetPoint" />
          </mxGeometry>
        </mxCell>
        <mxCell id="YbLRJA4qpd1V6_4RfZgu-35" value="v" style="endArrow=none;dashed=1;html=1;dashPattern=1 3;strokeWidth=2;rounded=0;exitX=0.392;exitY=0.933;exitDx=0;exitDy=0;exitPerimeter=0;" edge="1" parent="1" source="YbLRJA4qpd1V6_4RfZgu-18">
          <mxGeometry width="50" height="50" relative="1" as="geometry">
            <mxPoint x="79.5" y="710" as="sourcePoint" />
            <mxPoint x="310" y="770" as="targetPoint" />
            <Array as="points">
              <mxPoint x="70" y="770" />
            </Array>
          </mxGeometry>
        </mxCell>
        <mxCell id="YbLRJA4qpd1V6_4RfZgu-36" value="v" style="endArrow=none;dashed=1;html=1;dashPattern=1 3;strokeWidth=2;rounded=0;exitX=0.392;exitY=0.933;exitDx=0;exitDy=0;exitPerimeter=0;" edge="1" parent="1">
          <mxGeometry width="50" height="50" relative="1" as="geometry">
            <mxPoint x="780" y="710" as="sourcePoint" />
            <mxPoint x="500" y="770" as="targetPoint" />
            <Array as="points">
              <mxPoint x="783" y="764" />
            </Array>
          </mxGeometry>
        </mxCell>
        <mxCell id="YbLRJA4qpd1V6_4RfZgu-40" value="" style="endArrow=none;dashed=1;html=1;dashPattern=1 3;strokeWidth=2;rounded=0;exitX=1;exitY=0.5;exitDx=0;exitDy=0;entryX=-0.033;entryY=0.633;entryDx=0;entryDy=0;entryPerimeter=0;" edge="1" parent="1" source="YbLRJA4qpd1V6_4RfZgu-2" target="YbLRJA4qpd1V6_4RfZgu-5">
          <mxGeometry width="50" height="50" relative="1" as="geometry">
            <mxPoint x="170" y="380" as="sourcePoint" />
            <mxPoint x="420" y="460" as="targetPoint" />
          </mxGeometry>
        </mxCell>
        <mxCell id="YbLRJA4qpd1V6_4RfZgu-41" value="" style="endArrow=none;dashed=1;html=1;dashPattern=1 3;strokeWidth=2;rounded=0;exitX=1;exitY=0.5;exitDx=0;exitDy=0;entryX=0;entryY=0.5;entryDx=0;entryDy=0;" edge="1" parent="1" target="YbLRJA4qpd1V6_4RfZgu-6">
          <mxGeometry width="50" height="50" relative="1" as="geometry">
            <mxPoint x="162" y="276" as="sourcePoint" />
            <mxPoint x="230" y="280" as="targetPoint" />
          </mxGeometry>
        </mxCell>
        <mxCell id="YbLRJA4qpd1V6_4RfZgu-42" value="" style="endArrow=none;dashed=1;html=1;dashPattern=1 3;strokeWidth=2;rounded=0;exitX=1;exitY=0.5;exitDx=0;exitDy=0;" edge="1" parent="1">
          <mxGeometry width="50" height="50" relative="1" as="geometry">
            <mxPoint x="162" y="188" as="sourcePoint" />
            <mxPoint x="230" y="192" as="targetPoint" />
          </mxGeometry>
        </mxCell>
        <mxCell id="YbLRJA4qpd1V6_4RfZgu-43" value="" style="endArrow=none;html=1;rounded=0;entryX=0.5;entryY=0;entryDx=0;entryDy=0;exitX=1;exitY=0.5;exitDx=0;exitDy=0;" edge="1" parent="1" source="YbLRJA4qpd1V6_4RfZgu-5" target="YbLRJA4qpd1V6_4RfZgu-12">
          <mxGeometry width="50" height="50" relative="1" as="geometry">
            <mxPoint x="410" y="360" as="sourcePoint" />
            <mxPoint x="420" y="460" as="targetPoint" />
            <Array as="points">
              <mxPoint x="410" y="370" />
            </Array>
          </mxGeometry>
        </mxCell>
        <mxCell id="YbLRJA4qpd1V6_4RfZgu-44" value="" style="endArrow=none;html=1;rounded=0;exitX=1;exitY=0.5;exitDx=0;exitDy=0;" edge="1" parent="1">
          <mxGeometry width="50" height="50" relative="1" as="geometry">
            <mxPoint x="350" y="280" as="sourcePoint" />
            <mxPoint x="410" y="380" as="targetPoint" />
            <Array as="points">
              <mxPoint x="400" y="280" />
            </Array>
          </mxGeometry>
        </mxCell>
        <mxCell id="YbLRJA4qpd1V6_4RfZgu-46" value="" style="endArrow=none;html=1;rounded=0;exitX=1;exitY=0.5;exitDx=0;exitDy=0;" edge="1" parent="1">
          <mxGeometry width="50" height="50" relative="1" as="geometry">
            <mxPoint x="350" y="180" as="sourcePoint" />
            <mxPoint x="400" y="300" as="targetPoint" />
            <Array as="points">
              <mxPoint x="400" y="180" />
            </Array>
          </mxGeometry>
        </mxCell>
        <mxCell id="YbLRJA4qpd1V6_4RfZgu-49" value="&lt;h1 style=&quot;margin-top: 0px;&quot;&gt;Geof Djernaes&lt;/h1&gt;&lt;div&gt;w7a3 print numbers in order&lt;/div&gt;" style="text;html=1;whiteSpace=wrap;overflow=hidden;rounded=0;" vertex="1" parent="1">
          <mxGeometry x="540" y="120" width="180" height="120" as="geometry" />
        </mxCell>
      </root>
    </mxGraphModel>
  </diagram>
</mxfile>
